<svg viewBox="0 0 100 32" version="1.1" xmlns="http://www.w3.org/2000/svg" preserveAspectRatio="none"
    class="SparkLine__Svg-sc-9wg5ja-0 cdfFYq">
    <path
        d="M 0,4.446941206009411 C 5.473451173464831e-18,4.357552964807529 -0.2,3.9866974452270805 0,4 C 0.2,4.0133025547729195 0.5999999999999999,4.164409723249017 1,4.51345397987401 C 1.4,4.862498236499002 1.8,5.551043398417443 2,5.745221283124964 C 2.2,5.939399167832486 1.8,5.349731402853948 2,5.484343403411616 C 2.2,5.618955403969284 2.6,6.293774300110917 3,6.418281285913304 C 3.4,6.542788271715691 3.8,6.261685581875363 4,6.10687833242355 C 4.2,5.952071082971737 3.8000000000000003,5.849473897567557 4,5.644245038654239 C 4.2,5.43901617974092 4.6,4.976481423414375 5,5.080734037856958 C 5.4,5.184986652299542 5.8,6.093019041099019 6,6.1655081108671554 C 6.2,6.237997180635292 5.8,5.634292756935247 6,5.443179386697641 C 6.2,5.252066016460034 6.6,5.1228144527886394 7,5.2099412596791215 C 7.4,5.2970680665696035 7.8,5.73477138732003 8,5.87881342115005 C 8.2,6.02285545498007 7.8,5.9174696599457075 8,5.930151428829222 C 8.2,5.942833197712737 8.6,5.570292687861071 9,5.942222265567626 C 9.4,6.314151843274181 9.6,7.5436182972366375 10,7.789799317361997 C 10.4,8.035980337487356 10.8,7.093287403196215 11,7.173127366194423 C 11.2,7.252967329192631 10.8,8.143474833796823 11,8.188999132353036 C 11.2,8.234523430909249 11.6,7.460836991571976 12,7.400748858975485 C 12.4,7.340660726378993 12.8,7.661419810059048 13,7.888558469370578 C 13.2,8.115697128682108 12.8,8.59177585651634 13,8.536442155533136 C 13.2,8.48110845454993 13.6,7.7468665535504355 14,7.611889964454549 C 14.4,7.476913375358662 14.8,7.841580743533633 15,7.8615592100537 C 15.2,7.8815376765737675 14.8,7.789464290056597 15,7.711782297054885 C 15.2,7.634100304053173 15.6,7.6132744155253596 16,7.473149245045138 C 16.4,7.333024074564917 16.8,7.037574333058367 17,7.011156444653777 C 17.2,6.984738556249186 16.8,7.18569581701876 17,7.341059803022185 C 17.2,7.49642378902561 17.6,7.654290626075198 18,7.787976374670901 C 18.4,7.921662123266604 18.6,8.18481621790778 19,8.0094885460007 C 19.4,7.83416087409362 19.8,7.099431212752446 20,6.911338015135502 C 20.2,6.723244817518559 19.8,7.053744327415675 20,7.06902255791598 C 20.2,7.084300788416286 20.6,7.00543141922929 21,6.98772916763703 C 21.4,6.9700269160447705 21.8,7.031878868866705 22,6.980511299954683 C 22.2,6.929143731042662 21.8,6.868745205501475 22,6.730891323076922 C 22.2,6.5930374406523695 22.6,6.297607406634367 23,6.291241887831919 C 23.4,6.2848763690294716 23.8,6.5898103394019065 24,6.699063729064683 C 24.2,6.80831711872746 23.8,6.833838316402905 24,6.837508836145801 C 24.2,6.8411793558886975 24.6,5.986948410837468 25,6.717416327779166 C 25.4,7.447884244720863 25.8,9.647126649117704 26,10.489848420854289 C 26.2,11.332570192590875 25.8,10.764083050934094 26,10.931025186462094 C 26.2,11.097967321990094 26.6,10.663658616142818 27,11.324559098494287 C 27.4,11.985459580845756 27.8,14.128254811156184 28,14.235527598219436 C 28.2,14.342800385282688 27.8,12.51931081137157 28,11.860923033810543 C 28.2,11.202535256249517 28.6,10.93532141896654 29,10.943588710414303 C 29.4,10.951856001862067 29.6,11.435418648474101 30,11.90225949104936 C 30.4,12.369100333624619 30.8,12.80971050893653 31,13.277792923290598 C 31.2,13.745875337644666 30.8,13.63260654718933 31,14.242671562819698 C 31.2,14.852736578450067 31.6,16.065289080362373 32,16.328118001442437 C 32.4,16.5909469225225 32.8,13.222439768508503 33,15.556816168220015 C 33.2,17.89119256793153 32.8,26.866160675700794 33,28 C 33.2,29.133839324299206 33.6,22.769054630975138 34,21.22601278971605 C 34.4,19.682970948456965 34.8,20.728013895676142 35,20.284790793704573 C 35.2,19.841567691733005 34.8,20.013181439703335 35,19.0098972798582 C 35.2,18.006613120013068 35.6,15.685800325046014 36,15.268369994478903 C 36.4,14.850939663911792 36.8,16.235379838670656 37,16.922745627022643 C 37.2,17.61011141537463 36.8,18.85289566121187 37,18.70519893623884 C 37.2,18.55750221126581 37.6,16.39447382758744 38,16.18426200215749 C 38.4,15.974050176727538 38.6,17.434189846259244 39,17.654139809089084 C 39.4,17.874089771918925 39.8,17.132342049431884 40,17.28401181630669 C 40.2,17.4356815831815 39.8,18.325697124644805 40,18.41248864346312 C 40.2,18.499280162281437 40.6,18.070501800012227 41,17.717969410398265 C 41.4,17.365437020784302 41.8,16.793954082846163 42,16.649826695393315 C 42.2,16.505699307940468 41.8,17.081352216747018 42,16.997332473134023 C 42.2,16.913312729521028 42.6,16.209468909886212 43,16.22972797732835 C 43.4,16.249987044770485 43.8,16.897361483223957 44,17.09862781034471 C 44.2,17.29989413746546 43.8,17.27615927376229 44,17.23605961293211 C 44.2,17.19595995210193 44.6,16.872671514032636 45,16.89812950619382 C 45.4,16.923587498355 45.8,17.08868289752984 46,17.363349573738017 C 46.2,17.638016249946194 45.8,18.074755465691453 46,18.2714628872347 C 46.2,18.46817030877795 46.6,18.278000928926833 47,18.346886681454258 C 47.4,18.415772433981683 47.8,18.5075561021041 48,18.61589164987182 C 48.2,18.72422719763954 47.8,18.81925034726302 48,18.88856442029286 C 48.2,18.9578784933227 48.6,19.335061466334658 49,18.962462015021025 C 49.4,18.589862563707392 49.6,17.67553614131351 50,17.025567163724695 C 50.4,16.37559818613588 50.8,15.897046027550772 51,15.712617127076948 C 51.2,15.528188226603124 50.8,16.093206971211607 51,16.103422661355573 C 51.2,16.11363835149954 51.6,15.708343768501043 52,15.76369557779677 C 52.4,15.819047387092498 52.8,16.17632576480226 53,16.380181707834208 C 53.2,16.584037650866154 52.8,16.67065685683867 53,16.782975292956497 C 53.2,16.895293729074325 53.6,17.105914182110038 54,16.94177388842334 C 54.4,16.777633594736646 54.8,16.17393800108186 55,15.96227382452301 C 55.2,15.75060964796416 54.8,15.987126260111827 55,15.883453005629091 C 55.2,15.779779751146355 55.6,15.490643719114967 56,15.443907552109334 C 56.4,15.3971713851037 56.8,15.596438883213159 57,15.649772170600922 C 57.2,15.703105457988686 56.8,15.680744173827767 57,15.710573989048152 C 57.2,15.740403804268537 57.6,15.910259961211684 58,15.798921246702847 C 58.4,15.687582532194009 58.6,15.229205746240206 59,15.153880416503963 C 59.4,15.07855508676772 59.8,15.27775858296302 60,15.42229459802163 C 60.2,15.566830613080239 59.8,15.81179055467217 60,15.876560491797004 C 60.2,15.94133042892184 60.6,15.916015210261454 61,15.746144283645805 C 61.4,15.576273357030155 61.8,15.218310651161355 62,15.027205858718753 C 62.2,14.836101066276152 61.8,14.787242989655084 62,14.790620321432801 C 62.2,14.793997653210518 62.6,14.959221056213671 63,15.04409251760734 C 63.4,15.128963979001007 63.8,15.092113646120241 64,15.21497762840114 C 64.2,15.33784161068204 63.8,15.521354791461027 64,15.658412429011833 C 64.2,15.795470066562638 64.6,15.794130949589544 65,15.900265816155166 C 65.4,16.006400682720788 65.8,16.195861118292036 66,16.189086761839945 C 66.2,16.182312405387854 65.8,15.827933806711728 66,15.866394033894704 C 66.2,15.904854261077679 66.6,16.07825021619601 67,16.381387897754824 C 67.4,16.684525579313636 67.8,17.28266777610942 68,17.38208244168877 C 68.2,17.48149710726812 67.8,16.984655170907175 68,16.878461225651566 C 68.2,16.77226728039596 68.6,16.751545429882245 69,16.851112715410732 C 69.4,16.95068000093922 69.6,17.13844684739744 70,17.376297653294007 C 70.4,17.614148459190574 70.8,18.045339201300994 71,18.040366744893564 C 71.2,18.035394288486135 70.8,17.470803864380066 71,17.351435371256862 C 71.2,17.232066878133658 71.6,17.17964931044073 72,17.443524279277547 C 72.4,17.707399248114363 72.8,18.36477767807266 73,18.670810215440948 C 73.2,18.976842752809237 72.8,18.70490846601307 73,18.973686966118994 C 73.2,19.242465466224917 73.6,19.798696255697518 74,20.01470271597057 C 74.4,20.230709176243625 74.8,20.413198326396124 75,20.053719267484265 C 75.2,19.694240208572406 74.8,18.627298760263905 75,18.21730742141127 C 75.2,17.807316082558636 75.6,17.88187338932502 76,18.003762573221096 C 76.4,18.125651757117172 76.8,18.5977298759243 77,18.826753340891646 C 77.2,19.05577680585899 76.8,18.974189134983888 77,19.14887989805782 C 77.2,19.323570661131754 77.6,19.493062499486637 78,19.700207156261314 C 78.4,19.90735181303599 78.6,19.811949575151754 79,20.184603181931212 C 79.4,20.55725678871067 79.8,21.644673926324607 80,21.5634751901586 C 80.2,21.48227645399259 79.8,20.169818739761403 80,19.778609501101172 C 80.2,19.38740026244094 80.6,19.7416902430821 81,19.60742899685745 C 81.4,19.4731677506328 81.8,19.30609813856746 82,19.107303269977923 C 82.2,18.908508401388385 81.8,18.705445097447132 82,18.613454653909763 C 82.2,18.521464210372393 82.6,18.66887046511965 83,18.64735105229108 C 83.4,18.625831639462508 83.8,18.74453549732333 84,18.505857589766908 C 84.2,18.267179682210486 83.8,17.66460166044134 84,17.45396151450897 C 84.2,17.2433213685766 84.6,17.322437580920504 85,17.452656860105062 C 85.4,17.58287613928962 85.8,17.969802172925622 86,18.105057910431757 C 86.2,18.240313647937892 85.8,18.218503764883557 86,18.128935547635745 C 86.2,18.039367330387932 86.6,17.817792703583375 87,17.657216824192695 C 87.4,17.496640944802014 87.8,17.116504037290603 88,17.32605615068234 C 88.2,17.535608264074078 87.8,18.532497155727874 88,18.70497739115138 C 88.2,18.877457626574888 88.6,18.52983861467837 89,18.18845732779987 C 89.4,17.847076040921372 89.6,17.17866466560758 90,16.998070956758887 C 90.4,16.817477247910194 90.8,17.33072336719147 91,17.2854887835564 C 91.2,17.240254199921328 90.8,17.01728137745372 91,16.771898038583526 C 91.2,16.52651469971333 91.6,16.13586670860799 92,16.058572089205434 C 92.4,15.98127746980288 92.8,16.251985873781788 93,16.385424941570758 C 93.2,16.518864009359728 92.8,16.631394144116683 93,16.725767428150284 C 93.2,16.820140712183886 93.6,16.721887927507648 94,16.857291361738756 C 94.4,16.992694795969864 94.8,17.316170316557475 95,17.40278459930583 C 95.2,17.489398882054182 94.8,17.19486699633712 95,17.290362775480517 C 95.2,17.385858554623915 95.6,17.75076300656646 96,17.880263495022813 C 96.4,18.009763983479168 96.8,17.8737205301065 97,17.937865217762287 C 97.2,18.002009905418074 96.8,18.178679804606652 97,18.20098693330175 C 97.2,18.223294061996846 97.6,17.90356511499939 98,18.049400861237764 C 98.4,18.195236607476136 98.8,18.754012703842445 99,18.930165664493614"
        stroke-width="1.7" class="SparkLine__Path-sc-9wg5ja-1 csnuAl"></path>
</svg>